<?xml version="1.0" encoding="UTF-8"?>
<svg id="Layer_1" data-name="Layer 1" xmlns="http://www.w3.org/2000/svg" viewBox="0 0 32 32">
  <defs>
    <style>
      .cls-1 {
        fill: #08ba0c;
        stroke-width: 0px;
      }
    </style>
  </defs>
  <path class="cls-1" d="m27.9,11.3c-.1-1.55-.48-3.02-1.16-4.41-1.07-2.2-2.68-3.91-4.78-5.15C20.13.65,18.18-.03,15.91,0c-.52-.03-1.15.02-1.77.15-2.89.59-5.32,1.98-7.23,4.23-2.15,2.53-3.05,5.47-2.78,8.78.17,2.05.84,3.93,2.01,5.62,1.62,2.35,3.25,4.7,4.88,7.04,1.28,1.85,2.56,3.69,3.85,5.53.62.88,1.67.85,2.28-.03,1.17-1.68,2.34-3.36,3.51-5.04,1.44-2.07,2.88-4.13,4.31-6.2.64-.92,1.31-1.83,1.79-2.85.88-1.89,1.28-3.86,1.14-5.95Zm-11.9,4.7c-2.79,0-5.05-2.26-5.05-5.05s2.26-5.05,5.05-5.05,5.05,2.26,5.05,5.05-2.26,5.05-5.05,5.05Z"/>
</svg>